<svg xmlns="http://www.w3.org/2000/svg" style="display:none">
  <symbol id="icon-menu" viewBox="0 0 24 24" fill="none" stroke="currentColor" stroke-width="2" stroke-linecap="round">
    <path d="M4 7h16M4 12h16M4 17h16"/>
  </symbol>
  <symbol id="icon-close" viewBox="0 0 24 24" fill="none" stroke="currentColor" stroke-width="2" stroke-linecap="round">
    <path d="M6 6l12 12M18 6 6 18"/>
  </symbol>
  <symbol id="icon-bike" viewBox="0 0 24 24" fill="none" stroke="currentColor" stroke-width="1.75" stroke-linecap="round" stroke-linejoin="round">
    <circle cx="5.5" cy="17.5" r="3.5"/>
    <circle cx="18.5" cy="17.5" r="3.5"/>
    <path d="M9 17.5h5M12 17.5V9l3-4h4"/>
    <path d="M9 9h5l2 4"/>
  </symbol>
  <symbol id="icon-chart" viewBox="0 0 24 24" fill="none" stroke="currentColor" stroke-width="1.75" stroke-linecap="round" stroke-linejoin="round">
    <path d="M4 19V5"/>
    <path d="M4 19h16"/>
    <path d="M8 16l3-4 3 2 5-7"/>
  </symbol>
  <symbol id="icon-video" viewBox="0 0 24 24" fill="none" stroke="currentColor" stroke-width="1.75" stroke-linecap="round" stroke-linejoin="round">
    <rect x="3" y="6" width="13" height="12" rx="2"/>
    <path d="M16 10l5-3v10l-5-3z"/>
  </symbol>
  <symbol id="icon-play" viewBox="0 0 24 24" fill="currentColor" stroke="none">
    <path d="M8 5v14l11-7z"/>
  </symbol>
  <symbol id="icon-arrow" viewBox="0 0 24 24" fill="none" stroke="currentColor" stroke-width="2" stroke-linecap="round" stroke-linejoin="round">
    <path d="M5 12h14M13 6l6 6-6 6"/>
  </symbol>
  <symbol id="icon-youtube" viewBox="0 0 24 24" fill="currentColor" stroke="none">
    <path d="M23.5 6.2a3 3 0 0 0-2.1-2.1C19.5 3.5 12 3.5 12 3.5s-7.5 0-9.4.6A3 3 0 0 0 .5 6.2 31 31 0 0 0 0 12a31 31 0 0 0 .5 5.8 3 3 0 0 0 2.1 2.1c1.9.6 9.4.6 9.4.6s7.5 0 9.4-.6a3 3 0 0 0 2.1-2.1A31 31 0 0 0 24 12a31 31 0 0 0-.5-5.8zM9.7 15.5V8.5L15.8 12z"/>
  </symbol>
</svg>
